<svg xmlns="http://www.w3.org/2000/svg" viewBox="0 0 64 64">
  <rect width="64" height="64" rx="10" fill="#0b141c" />
  <g fill="none" stroke="#00e639" stroke-width="2.4" stroke-linecap="round" stroke-linejoin="round">
    <!-- two hemispheres -->
    <path d="M32 14c-6-4-16-1-18 6-6 1-9 7-6 12-3 4-2 10 3 12 1 5 7 7 11 5 2 2 6 3 10 1" />
    <path d="M32 14c6-4 16-1 18 6 6 1 9 7 6 12 3 4 2 10-3 12-1 5-7 7-11 5-2 2-6 3-10 1" />
    <!-- central fissure -->
    <line x1="32" y1="14" x2="32" y2="51" opacity="0.6" />
    <!-- folds -->
    <path d="M22 24c4 2 5 7 2 10" opacity="0.8" />
    <path d="M42 24c-4 2-5 7-2 10" opacity="0.8" />
  </g>
</svg>
